<svg id="Capa_1" data-name="Capa 1" xmlns="http://www.w3.org/2000/svg" viewBox="0 0 200 200"><defs><style>.cls-1{fill:#fff;}</style></defs><path class="cls-1" d="M100.42,83.58A16.42,16.42,0,1,0,116.84,100,16.44,16.44,0,0,0,100.42,83.58Zm0,0A16.42,16.42,0,1,0,116.84,100,16.44,16.44,0,0,0,100.42,83.58ZM100,0A100,100,0,1,0,200,100,100,100,0,0,0,100,0Zm52,120.78A31.3,31.3,0,0,1,120.77,152H79.22A31.29,31.29,0,0,1,48,120.78V79.22A31.29,31.29,0,0,1,79.22,48h41.55A31.3,31.3,0,0,1,152,79.22Zm-31.27-63H79.22A21.49,21.49,0,0,0,57.75,79.22v41.56a21.49,21.49,0,0,0,21.47,21.47h41.55a21.49,21.49,0,0,0,21.47-21.47V79.22A21.49,21.49,0,0,0,120.77,57.75Zm-20.35,67.88A25.63,25.63,0,1,1,126.06,100,25.66,25.66,0,0,1,100.42,125.63Zm27.13-46.88a6.11,6.11,0,1,1,6.1-6.1A6.1,6.1,0,0,1,127.55,78.75Zm-27.13,4.83A16.42,16.42,0,1,0,116.84,100,16.44,16.44,0,0,0,100.42,83.58Z"/></svg>