<svg id="Capa_1" data-name="Capa 1" xmlns="http://www.w3.org/2000/svg" viewBox="0 0 265.75 135.79"><defs><style>.cls-1{fill:#fff;}.cls-2{fill:#ec6059;}.cls-3{fill:#35b7bc;}.cls-4{fill:#e83946;}.cls-5{fill:#e7e8e9;}.cls-6{fill:#152532;}</style></defs><path class="cls-1" d="M251.13,70.23H174.65c-3.62-12.41-11.32-24-20.76-31C152,19.1,147.59,0,132.87,0s-19.12,19.11-21,39.28c-9.42,7-17.12,18.55-20.74,31H14.63C4.67,70.23.06,76.84,0,83-.11,93.34,10.26,96.71,17.83,99.17a271.24,271.24,0,0,0,27,6.88,478.38,478.38,0,0,0,54.85,8c.33.38.67.75,1,1.12a35.44,35.44,0,0,0,64.41,0c.34-.37.68-.74,1-1.13a476.22,476.22,0,0,0,54.85-8,270.36,270.36,0,0,0,27-6.88c7.58-2.46,18-5.83,17.83-16.19C265.69,76.84,261.08,70.23,251.13,70.23Z"/><path class="cls-2" d="M132.88,41.89a22.45,22.45,0,0,1,6.71,1c-1.54-16.66-4.44-28.19-6.72-28.43-2.27.26-5.18,11.79-6.72,28.44A22.32,22.32,0,0,1,132.88,41.89Z"/><path class="cls-2" d="M20.21,84.73c12.66,4.4,43.24,11.63,81.95,15a33.66,33.66,0,0,1-3.29-14.49c0-.15,0-.3,0-.46Z"/><path class="cls-2" d="M166.88,84.73c0,.16,0,.31,0,.46a33.81,33.81,0,0,1-3.29,14.49c38.7-3.32,69.27-10.55,81.94-15Z"/><path class="cls-3" d="M112.88,58.6c5.07,2.81,19.81,9,39.83-.22-5.34-7-12.38-12-19.83-12S118.24,51.46,112.88,58.6Z"/><path class="cls-2" d="M103.38,85.19a29.27,29.27,0,0,0,4,14.82,25.48,25.48,0,0,1,51,0,29.37,29.37,0,0,0,4-14.82c0-7.55-2.72-16-7.09-23.07a54.8,54.8,0,0,1-23.49,5.62,44,44,0,0,1-21.49-5.41C106,69.36,103.38,77.72,103.38,85.19Z"/><path class="cls-1" d="M153.87,100.3a21,21,0,1,0-21,21A21,21,0,0,0,153.87,100.3ZM149,98.18c1.73,10.79-6.45,15.9-11,17.1a2.38,2.38,0,0,1-.58.08,2.25,2.25,0,0,1-.58-4.43c.95-.26,9.2-2.78,7.72-12a2.25,2.25,0,1,1,4.45-.71Zm-19.39,2.12a3.29,3.29,0,1,1,3.29,3.29A3.29,3.29,0,0,1,129.59,100.3ZM126.92,85a2.25,2.25,0,0,1,1.61,4.21c-.93.37-8.85,3.76-6.38,12.8a2.26,2.26,0,0,1-1.59,2.77,2.32,2.32,0,0,1-.59.07,2.24,2.24,0,0,1-2.17-1.66C114.92,92.67,122.51,86.7,126.92,85Z"/><path class="cls-4" d="M20.21,84.73s57.17,10.8,81.95,10.14l2.77,8.72S32.16,94.59,20.21,84.73Z"/><path class="cls-4" d="M246.94,84.73S189.76,95.53,165,94.87l-2.77,8.72S235,94.59,246.94,84.73Z"/><path class="cls-4" d="M111.9,62.12s-7,13.08,3,22.75c0,0-5.12,7.46-5.39,11.41s0,9.54,0,9.54-8.88-9-7.38-24.76S109.09,59.79,111.9,62.12Z"/><path class="cls-4" d="M153.7,62.12s7,13.08-3,22.75c0,0,5.12,7.46,5.39,11.41s0,9.54,0,9.54,8.87-9,7.38-24.76S156.51,59.79,153.7,62.12Z"/><path class="cls-4" d="M128.46,26.19s-2,13,4.42,13,4.41-13,4.41-13,4.64,4.53,4.89,8.53,0,10.5,0,10.5-4.51-3.29-9.38-2.27a37.51,37.51,0,0,0-9.23,3.44S125,27.16,128.46,26.19Z"/><path class="cls-1" d="M112.93,61.88s6.33-14.66,14.67-17.33h4s-13.34,9-14.34,19.67Z"/><path class="cls-1" d="M120.6,63.88s3.66-15.33,15-19l2.66,1a21.28,21.28,0,0,0-14,19Z"/><circle class="cls-5" cx="132.93" cy="100.22" r="15.06"/><polygon class="cls-1" points="20.21 84.73 100.65 87.89 99.59 81.06 20.21 84.73"/><polygon class="cls-1" points="245.55 84.73 165.12 87.89 165.12 81.06 245.55 84.73"/><path class="cls-6" d="M251.13,80.23H166.56c-1.77-14-10.66-28.94-22.23-35.25-1.24-16.36-4.24-35-11.46-35s-10.22,18.63-11.46,35C109.85,51.31,101,66.25,99.2,80.23H14.63c-3.05,0-4.61,1-4.63,2.85,0,1.71.77,3.28,10.92,6.58a258.76,258.76,0,0,0,25.93,6.6,474.35,474.35,0,0,0,58,8.16,34.13,34.13,0,0,0,4.29,5.08,25.45,25.45,0,0,0,47.49,0,34.68,34.68,0,0,0,4.28-5.08,476.36,476.36,0,0,0,58-8.16,258.49,258.49,0,0,0,25.92-6.6c10.15-3.3,10.94-4.87,10.92-6.58C255.73,81.19,254.18,80.23,251.13,80.23ZM132.88,121.28a21,21,0,1,1,21-21A21,21,0,0,1,132.88,121.28Zm0-106.77c2.28.24,5.18,11.77,6.72,28.43a21.93,21.93,0,0,0-13.44,0C127.69,26.3,130.6,14.77,132.87,14.51Zm0,31.88c7.45,0,14.49,5,19.83,12-20,9.18-34.76,3-39.83.22C118.24,51.46,125.35,46.39,132.88,46.39Zm-1.07,21.35a54.8,54.8,0,0,0,23.49-5.62c4.37,7.08,7.09,15.52,7.09,23.07a29.37,29.37,0,0,1-4,14.82,25.48,25.48,0,0,0-51,0,29.27,29.27,0,0,1-4-14.82c0-7.47,2.65-15.83,6.94-22.86A44,44,0,0,0,131.81,67.74ZM102.16,99.68c-38.71-3.32-69.29-10.55-81.95-15H98.88c0,.16,0,.31,0,.46A33.66,33.66,0,0,0,102.16,99.68ZM166.9,85.19c0-.15,0-.3,0-.46h78.67c-12.67,4.4-43.24,11.63-81.94,15A33.81,33.81,0,0,0,166.9,85.19Z"/><path class="cls-6" d="M120,104.87a2.32,2.32,0,0,0,.59-.07,2.26,2.26,0,0,0,1.59-2.77c-2.47-9,5.45-12.43,6.38-12.8A2.25,2.25,0,0,0,126.92,85c-4.41,1.68-12,7.65-9.12,18.19A2.24,2.24,0,0,0,120,104.87Z"/><path class="cls-6" d="M144.53,98.89c1.48,9.26-6.77,11.78-7.72,12a2.25,2.25,0,0,0,.58,4.43,2.38,2.38,0,0,0,.58-.08c4.56-1.2,12.74-6.31,11-17.1a2.25,2.25,0,1,0-4.45.71Z"/><path class="cls-6" d="M132.88,103.59a3.29,3.29,0,1,0-3.29-3.29A3.29,3.29,0,0,0,132.88,103.59Z"/></svg>