<svg xmlns="http://www.w3.org/2000/svg" viewBox="0 0 185.93 161.73"><defs><style>.cls-1{isolation:isolate;}.cls-18,.cls-2{fill:#f5aa1f;}.cls-3{fill:#8fc045;}.cls-4{font-size:20.73px;font-family:Exo-Bold, Exo Bold;font-weight:700;}.cls-16,.cls-4{fill:#fff;}.cls-5{letter-spacing:0em;}.cls-6{letter-spacing:-0.05em;}.cls-7{fill:#84b93d;}.cls-12,.cls-13,.cls-17,.cls-7{mix-blend-mode:multiply;}.cls-12,.cls-18,.cls-7{opacity:0.5;}.cls-8{fill:#8c5f3d;}.cls-9{fill:#f09522;}.cls-10{fill:#9ed7ec;}.cls-11{font-size:15.71px;fill:#2075bb;font-family:Exo-ExtraBold, Exo ExtraBold;font-weight:800;}.cls-12,.cls-13{fill:#bdbec0;}.cls-14{fill:#754d29;}.cls-15{fill:#e52629;}.cls-17{fill:#d1d2d4;}.cls-18{mix-blend-mode:overlay;}</style></defs><g class="cls-1"><g id="Capa_1" data-name="Capa 1"><rect class="cls-2" y="31.58" width="185.93" height="125.59" rx="21.05"/><rect class="cls-3" x="8.86" y="77.86" width="85.34" height="26.95" transform="translate(-32.91 29.15) rotate(-24.2)"/><text class="cls-4" transform="translate(22.14 114.04) rotate(-24.86)">T<tspan class="cls-5" x="10.3" y="0">R</tspan><tspan class="cls-6" x="21.56" y="0">A</tspan><tspan x="33.15" y="0">VEL</tspan></text><polygon class="cls-7" points="84.93 61.55 18.14 121.11 95.97 86.14 84.93 61.55"/><path class="cls-8" d="M50.2,31.58H75V24.22H66.26c.27-8.71,6.89-15.7,15-15.7h23.1c8.15,0,14.78,7,15,15.69H111.7v7.38h24.78V24.19h-6V21A21.06,21.06,0,0,0,109.47,0H77.2a21,21,0,0,0-21,21.06v3.15h-6Z"/><path class="cls-9" d="M164.88,31.58H154.1c0,.46.07.93.07,1.4v83.49a21,21,0,0,1-21,21.05H.07a21,21,0,0,0,21,19.64H164.88a21,21,0,0,0,21.05-21V52.63A21.05,21.05,0,0,0,164.88,31.58Z"/><rect class="cls-10" x="131.47" y="35.7" width="25.58" height="71.48" transform="translate(21.2 175.22) rotate(-66.49)"/><text class="cls-11" transform="translate(112.73 64.74) rotate(21.92)">SUMMER</text><polygon class="cls-12" points="106.38 68.91 171.93 97.42 116.59 45.45 106.38 68.91"/><path class="cls-13" d="M30,32.66V156.08a5.41,5.41,0,0,0,.12,1.08H41.83a4.77,4.77,0,0,0,.12-1.08V32.66a4.83,4.83,0,0,0-.12-1.08H30.14A5.5,5.5,0,0,0,30,32.66Z"/><path class="cls-13" d="M152.45,32.66V156.08a5.42,5.42,0,0,0,.11,1.08h11.7a5.42,5.42,0,0,0,.11-1.08V32.66a5.49,5.49,0,0,0-.11-1.08h-11.7A5.49,5.49,0,0,0,152.45,32.66Z"/><path class="cls-8" d="M37.71,156.08a5.81,5.81,0,0,1-6,5.65h0a5.81,5.81,0,0,1-6-5.65V32.66a5.8,5.8,0,0,1,6-5.64h0a5.8,5.8,0,0,1,6,5.64Z"/><path class="cls-8" d="M160.14,156.08a5.82,5.82,0,0,1-6,5.65h0a5.81,5.81,0,0,1-6-5.65V32.66a5.8,5.8,0,0,1,6-5.64h0a5.81,5.81,0,0,1,6,5.64Z"/><path class="cls-14" d="M148.33,31.58H160a6,6,0,0,0-11.69,0Z"/><path class="cls-14" d="M25.9,31.58H37.6a6,6,0,0,0-11.7,0Z"/><path class="cls-15" d="M128.82,123.81a20.29,20.29,0,1,1-20.29-20.29A20.29,20.29,0,0,1,128.82,123.81Z"/><polygon class="cls-16" points="104.02 110.38 111.31 116.5 120.76 115.29 117.19 124.11 121.25 132.72 111.75 132.06 104.82 138.58 102.52 129.34 94.18 124.77 102.25 119.72 104.02 110.38"/><path class="cls-17" d="M115.49,104.78l-15,37.65a20.27,20.27,0,1,0,15-37.65Z"/><path class="cls-18" d="M111.6,50.45a6.23,6.23,0,0,1-6.23,6.23H17.72a6.23,6.23,0,0,1-6.23-6.23h0a6.23,6.23,0,0,1,6.23-6.23h87.65a6.23,6.23,0,0,1,6.23,6.23Z"/></g></g></svg>