<svg xmlns="http://www.w3.org/2000/svg" viewBox="0 0 176.7 183.41"><defs><style>.cls-1{isolation:isolate;}.cls-2{fill:#f5aa1f;}.cls-3{fill:#fff;}.cls-4{fill:#e52629;}.cls-5{fill:#91d0d7;}.cls-6{fill:#e7e8e9;mix-blend-mode:multiply;}</style></defs><g class="cls-1"><g id="Capa_1" data-name="Capa 1"><path class="cls-2" d="M157.57,140.66l-9.67-21.51,8.39-15.56a7.64,7.64,0,0,0-13.45-7.25L140,101.6l-9.15-20.35a14.67,14.67,0,0,0-2.36-3.68l14.72-27.31a21.62,21.62,0,0,0-38.06-20.52L90.44,57a15.27,15.27,0,0,0-4.37.06L64,60.64l2.84-5.26a7.64,7.64,0,0,0-13.45-7.25L45,63.7,21.75,67.44A15,15,0,0,0,26.51,97L72.9,89.58,58.55,116.19c-.12.23-.22.47-.34.71-8.8,3.08-42.5,15.63-37.75,26.24,3.82,8.53,23.59,8.86,35.09,8.3l-.22.41A7.53,7.53,0,0,0,68.58,159c6.17,10.08,17.3,25.68,26.42,24.3,11.37-1.72,3.54-35.4.93-45.48.23-.38.47-.74.69-1.13L111,110.1,130.23,153a15,15,0,1,0,27.34-12.29Z"/><circle class="cls-3" cx="96.06" cy="61.52" r="3.5"/><circle class="cls-3" cx="91.31" cy="70.67" r="3.5"/><circle class="cls-3" cx="86.56" cy="79.83" r="3.5"/><circle class="cls-3" cx="81.82" cy="88.99" r="3.5"/><circle class="cls-3" cx="77.07" cy="98.15" r="3.5"/><circle class="cls-3" cx="122.33" cy="74.17" r="3.5"/><circle class="cls-3" cx="117.58" cy="83.33" r="3.5"/><circle class="cls-3" cx="112.84" cy="92.49" r="3.5"/><circle class="cls-3" cx="108.09" cy="101.64" r="3.5"/><circle class="cls-3" cx="103.35" cy="110.8" r="3.5"/><path class="cls-4" d="M147.9,119.15l8.39-15.56a7.64,7.64,0,0,0-13.45-7.25L140,101.6l-9.15-20.35a15,15,0,0,0-2.27-3.56l-17.53,32.19s0,.15,0,.36L130.23,153a15,15,0,1,0,27.34-12.29Z"/><path class="cls-5" d="M22.8,130a2.75,2.75,0,0,1-1.3-.32,2.8,2.8,0,0,1-1.18-3.77L33,101.72a2.79,2.79,0,0,1,5,2.59L25.28,128.5A2.79,2.79,0,0,1,22.8,130Z"/><path class="cls-5" d="M2.8,140.1a2.75,2.75,0,0,1-1.3-.32A2.78,2.78,0,0,1,.32,136L13,111.82a2.8,2.8,0,1,1,5,2.6L5.27,138.61A2.79,2.79,0,0,1,2.8,140.1Z"/><path class="cls-4" d="M86.07,57.1,64,60.64l2.84-5.26a7.64,7.64,0,0,0-13.45-7.25L45,63.7,21.75,67.44A15,15,0,0,0,26.51,97L72.9,89.58,90.44,57A15.27,15.27,0,0,0,86.07,57.1Z"/><path class="cls-5" d="M53.19,0C43.91,0,35.86,6.42,31.78,15.84A13.83,13.83,0,0,0,30,15.72c-9.46,0-17.13,9.41-17.17,21H89.45c0-9-5.94-16.21-13.23-16.24C73,8.61,63.94,0,53.19,0Z"/><path class="cls-5" d="M143.83,83.9a2.81,2.81,0,0,1-2.48-4.1L154,55.61a2.8,2.8,0,1,1,5,2.6L146.3,82.4A2.8,2.8,0,0,1,143.83,83.9Z"/><path class="cls-5" d="M162.27,78.87A2.76,2.76,0,0,1,161,78.6a2.8,2.8,0,0,1-1.33-3.73l11.75-24.66a2.8,2.8,0,0,1,5.05,2.41L164.69,77.28A2.82,2.82,0,0,1,162.27,78.87Z"/><path class="cls-3" d="M135.11,52.45l1.83-3.39A15.66,15.66,0,0,0,109.38,34.2l-2.15,4Z"/><path class="cls-6" d="M58.55,116.19c-.12.23-.22.47-.34.71-8.8,3.08-42.5,15.63-37.75,26.24,3.82,8.53,23.59,8.86,35.09,8.3l-.22.41A7.53,7.53,0,0,0,68.58,159c6.17,10.08,17.3,25.68,26.42,24.3,11.37-1.72,3.54-35.4.93-45.48.23-.38.47-.74.69-1.13L111,110.1,130.23,153a15,15,0,1,0,27.34-12.29l-9.67-21.51,8.39-15.56a7.64,7.64,0,0,0-13.45-7.25L140,101.6l-9.15-20.35a14.67,14.67,0,0,0-2.36-3.68S106,116.48,58.55,116.19Z"/></g></g></svg>