<svg xmlns="http://www.w3.org/2000/svg" viewBox="0 0 184.87 157.84"><defs><style>.cls-1{isolation:isolate;}.cls-2{fill:#91d0d7;}.cls-3{fill:#b1dde3;}.cls-4{fill:#7ab9e5;}.cls-11,.cls-12,.cls-5{fill:none;stroke:#fff;}.cls-5{stroke-miterlimit:10;}.cls-10,.cls-5{opacity:0.5;}.cls-6{fill:#78ab36;}.cls-7{fill:#e8433a;}.cls-8{fill:#fff;}.cls-9{fill:#6a9839;}.cls-10{fill:#d1d2d4;mix-blend-mode:multiply;}.cls-11,.cls-12{stroke-linecap:round;stroke-linejoin:round;}.cls-12{stroke-dasharray:3.93 2.95;}</style></defs><g class="cls-1"><g id="Capa_1" data-name="Capa 1"><polygon class="cls-2" points="61.62 136.15 123.25 157.84 123.25 21.69 61.62 0 61.62 136.15"/><polygon class="cls-3" points="61.62 136.15 0 157.84 0 21.69 61.62 0 61.62 136.15"/><polygon class="cls-4" points="184.87 136.15 123.25 157.84 123.25 21.69 184.87 0 184.87 136.15"/><polygon class="cls-4" points="184.87 136.15 123.25 157.84 123.25 21.69 184.87 0 184.87 136.15"/><polyline class="cls-5" points="11.2 48.26 61.62 29.45 123.25 49.83 174.87 34.53"/><polyline class="cls-5" points="11.2 67.06 61.62 48.26 123.25 68.63 174.87 53.33"/><polyline class="cls-5" points="11.2 85.86 61.62 67.06 123.25 87.44 174.87 72.14"/><polyline class="cls-5" points="11.2 104.67 61.62 85.86 123.25 106.24 174.87 90.94"/><polygon class="cls-5" points="123.25 32.62 61.62 11.14 11.2 29.65 11.2 143.72 61.62 125.21 123.25 146.69 174.87 125.55 174.87 13.99 123.25 32.62"/><polyline class="cls-5" points="11.2 123.47 61.62 104.67 123.25 125.04 174.87 109.74"/><path class="cls-6" d="M56.42,54a8.53,8.53,0,0,0-2-7.84C52.48,44,47.7,42.67,47.82,47c0,0-1.11,5.81-3.94,7-1.81.74-4.21.36-6.12.74a49.31,49.31,0,0,0-8,2.52C23,59.82,15.87,65.36,20,73.31c4.37,8.42,14.54-.67,21.35.24,3.95.52,13.55,4.06,14.51-3,.58-4.2-4.46-3.68-2.57-8.05A41.41,41.41,0,0,0,56.42,54Z"/><path class="cls-7" d="M35.11,30.58a9.55,9.55,0,0,0-9.55,9.55C25.56,45.4,35.11,58,35.11,58s9.54-12.64,9.54-17.91A9.55,9.55,0,0,0,35.11,30.58Zm0,13.73a5.43,5.43,0,1,1,5.42-5.42A5.43,5.43,0,0,1,35.11,44.31Z"/><circle class="cls-8" cx="35.11" cy="63.96" r="4.2"/><path class="cls-9" d="M156.13,80.92c-2.24,3.5-4.37,10.32-7.81,13.87-3,3.09-7.17,3.85-10.92,4.47-6.46,1.07-12.27,0-18.75,0-6.92,0-12.67-.69-16.76,7.25-1.67,3.25-3.1,7.74-2.55,11.81.89,6.6,6.68,7.74,11.1,8.17,4.94.48,10,.89,14.81-.31,4.06-1,8.16-2.6,12.4-2.06s20.43,7.35,19.47-4.47c-.29-3.47-4.07-5.65-3.62-9.38.33-2.74,4.78-6.77,6.26-9.38,2.6-4.57,7-14.55,3.85-19.88-1.49-2.53-5.67-3.37-7.15-.51"/><path class="cls-6" d="M123.24,99.41c-1.5-.08-3-.14-4.59-.14-6.92,0-12.67-.69-16.76,7.25-1.67,3.25-3.1,7.74-2.55,11.81.89,6.6,6.68,7.74,11.1,8.17a50.32,50.32,0,0,0,12.8.09Z"/><polygon class="cls-10" points="184.87 0 174.87 118.27 128.01 133.71 123.25 21.69 123.25 133.88 69.53 120.24 61.62 0 61.62 0 61.62 118.43 0.68 140.53 0 157.84 61.62 136.15 123.25 157.84 129.5 155.63 129.5 155.63 184.87 136.15 184.87 0"/><circle class="cls-8" cx="139.3" cy="109.31" r="4.2"/><path class="cls-7" d="M139.3,69.87A11.29,11.29,0,0,0,128,81.16c0,6.23,11.29,21.18,11.29,21.18s11.29-15,11.29-21.18A11.29,11.29,0,0,0,139.3,69.87Zm0,16.23a6.42,6.42,0,1,1,6.42-6.41A6.41,6.41,0,0,1,139.3,86.1Z"/><path class="cls-11" d="M39.3,64s.71-.17,2-.37"/><path class="cls-12" d="M44.19,63.21c10-1,32.55-.9,43,19.65,6.17,12.11,13.86,28.6,46.48,27"/><path class="cls-11" d="M135.16,109.8l2-.15"/></g></g></svg>