<svg xmlns="http://www.w3.org/2000/svg" viewBox="0 0 141.11 190.71"><defs><style>.cls-1{isolation:isolate;}.cls-2{fill:#9ed7ec;}.cls-3{fill:#f5aa1f;}.cls-4{fill:#fff;}.cls-5{fill:#d1d2d4;}.cls-5,.cls-8{mix-blend-mode:multiply;}.cls-6{fill:#c1e4ef;}.cls-7{fill:#8fc045;}.cls-9{font-size:16.45px;fill:#2075bb;font-family:Exo-ExtraBold, Exo ExtraBold;font-weight:800;}.cls-10{letter-spacing:-0.08em;}.cls-11{letter-spacing:0.01em;}.cls-12{letter-spacing:0em;}</style></defs><g class="cls-1"><g id="Capa_1" data-name="Capa 1"><path class="cls-2" d="M141.11,162.52c0,3.79-3.37,6.87-7.54,6.87H46.44c-4.16,0-7.54-3.08-7.54-6.87V6.87C38.9,3.07,42.28,0,46.44,0h87.13c4.17,0,7.54,3.07,7.54,6.87Z"/><path class="cls-3" d="M38.9,162.52c0,3.79,3.38,6.87,7.54,6.87h87.13c4.17,0,7.54-3.08,7.54-6.87v-45.4H38.9Z"/><path class="cls-2" d="M141.11,6.87c0-3.8-3.37-6.87-7.54-6.87H46.44C42.28,0,38.9,3.07,38.9,6.87V47.32H141.11Z"/><rect class="cls-4" x="38.9" y="47.32" width="102.21" height="69.79"/><path class="cls-5" d="M104.88,14.87h-66V162.52c0,3.79,3.38,6.87,7.54,6.87h66V21.74C112.42,17.94,109.05,14.87,104.88,14.87Z"/><path class="cls-6" d="M102.21,183.84c0,3.79-3.38,6.87-7.54,6.87H7.54c-4.16,0-7.54-3.08-7.54-6.87V28.19c0-3.79,3.38-6.87,7.54-6.87H94.67c4.16,0,7.54,3.08,7.54,6.87Z"/><path class="cls-2" d="M95.35,21.38V175.14c0,3.79-3.38,6.86-7.54,6.86H.67c-.23,0-.44,0-.67-.06v1.9c0,3.79,3.38,6.87,7.54,6.87H94.67c4.16,0,7.54-3.08,7.54-6.87V28.19C102.21,24.61,99.19,21.7,95.35,21.38Z"/><path class="cls-4" d="M87.32,74.73A36.22,36.22,0,1,1,51.11,38.51,36.21,36.21,0,0,1,87.32,74.73Z"/><path class="cls-2" d="M86.57,163.26a3.43,3.43,0,0,1-3.43,3.44H19.07a3.43,3.43,0,0,1-3.43-3.44h0a3.43,3.43,0,0,1,3.43-3.43H83.14a3.43,3.43,0,0,1,3.43,3.43Z"/><path class="cls-2" d="M86.57,150.12a3.43,3.43,0,0,1-3.43,3.43H19.07a3.43,3.43,0,0,1-3.43-3.43h0a3.43,3.43,0,0,1,3.43-3.44H83.14a3.43,3.43,0,0,1,3.43,3.44Z"/><path class="cls-7" d="M48.56,106V77.75H33.23C33.91,92.29,40.33,104,48.56,106Z"/><path class="cls-7" d="M73.28,77.75c-.4,9.87-3.09,18.65-7.19,24.92A31.26,31.26,0,0,0,82.27,77.75Z"/><path class="cls-7" d="M53.65,77.75V106C61.88,104,68.3,92.29,69,77.75Z"/><path class="cls-7" d="M73.28,72.66h9A31.28,31.28,0,0,0,66.15,47.77C70.22,54.05,72.89,62.82,73.28,72.66Z"/><path class="cls-7" d="M48.56,72.66V44.34c-8.23,2-14.66,13.75-15.33,28.32Z"/><path class="cls-7" d="M28.93,77.75h-9a31.26,31.26,0,0,0,16.18,24.92C32,96.4,29.33,87.62,28.93,77.75Z"/><path class="cls-7" d="M53.65,44.34V72.66H69C68.31,58.09,61.89,46.38,53.65,44.34Z"/><path class="cls-7" d="M28.93,72.66c.39-9.84,3.06-18.61,7.13-24.89A31.28,31.28,0,0,0,19.94,72.66Z"/><g class="cls-8"><text class="cls-9" transform="translate(15.36 134.39)"><tspan class="cls-10">P</tspan><tspan x="7.37" y="0">ASPO</tspan><tspan class="cls-11" x="45.64" y="0">R</tspan><tspan class="cls-12" x="54.64" y="0">T</tspan></text></g></g></g></svg>